<?xml version="1.0" encoding="UTF-8"?><svg id="a" xmlns="http://www.w3.org/2000/svg" viewBox="0 0 241.1 212.9"><defs><style>.b{fill:#2d13ea;}</style></defs><polygon class="b" points="100.8 184.8 56.1 140.2 56.1 106.4 117.7 167.9 100.8 184.8"/><polygon class="b" points="140.3 184.8 184.9 140.2 184.9 106.4 123.4 167.9 140.3 184.8"/><polygon class="b" points="72.7 212.9 0 140.3 0 106.5 89.6 196 72.7 212.9"/><polygon class="b" points="168.4 212.9 151.5 196 241.1 106.5 241.1 140.3 168.4 212.9"/><polygon class="b" points="100.8 28.1 56.1 72.8 56.1 106.6 117.7 45 100.8 28.1"/><polygon class="b" points="140.3 28.1 184.9 72.8 184.9 106.6 123.4 45 140.3 28.1"/><polygon class="b" points="72.7 0 0 72.7 0 106.5 89.6 16.9 72.7 0"/><polygon class="b" points="168.4 0 151.5 16.9 241.1 106.5 241.1 72.7 168.4 0"/></svg>